<svg xmlns="http://www.w3.org/2000/svg" width="16" height="17" viewBox="0 0 16 17" fill="none">
<g opacity="0.5">
<path d="M13.71 14.2105L13.3565 13.8568C13.3434 13.8699 13.3222 13.8699 13.3091 13.8568L10.2825 10.83L9.96602 10.5136L9.61655 10.7932C8.88087 11.3817 7.9486 11.7333 6.93281 11.7333C4.55799 11.7333 2.63281 9.80812 2.63281 7.4333C2.63281 5.05848 4.55799 3.1333 6.93281 3.1333C9.30764 3.1333 11.2328 5.05848 11.2328 7.4333C11.2328 8.44909 10.8813 9.38136 10.2927 10.117L10.0131 10.4665L10.3296 10.783L13.3563 13.8096C13.3694 13.8227 13.3694 13.8439 13.3563 13.857L13.71 14.2105ZM13.71 14.2105C13.9182 14.0022 13.9182 13.6644 13.71 13.4561L12.9556 14.2105C13.164 14.4187 13.5017 14.4187 13.71 14.2105ZM6.93281 11.6666C9.27082 11.6666 11.1661 9.77131 11.1661 7.4333C11.1661 5.09529 9.27082 3.19997 6.93281 3.19997C4.5948 3.19997 2.69948 5.09529 2.69948 7.4333C2.69948 9.77131 4.5948 11.6666 6.93281 11.6666Z" fill="#09090B" stroke="#09090B"/>
</g>
</svg>